<svg xmlns="http://www.w3.org/2000/svg" xmlns:xlink="http://www.w3.org/1999/xlink" width="159.733" height="26.846" viewBox="0 0 159.733 26.846">
  <defs>
    <clipPath id="clip-path">
      <path id="Clip_2" data-name="Clip 2" d="M0,0H16.361V19.084H0Z" transform="translate(0 0.047)" fill="none"/>
    </clipPath>
  </defs>
  <g id="Group_17" data-name="Group 17" transform="translate(0)">
    <g id="Group_3" data-name="Group 3" transform="translate(0 1.247)">
      <path id="Clip_2-2" data-name="Clip 2" d="M0,0H16.361V19.084H0Z" transform="translate(0 0.047)" fill="none"/>
    </g>
    <path id="Fill_1" data-name="Fill 1" d="M6.334,19.084H0V0H6.334A11.387,11.387,0,0,1,9.906.593a9.9,9.9,0,0,1,3.235,1.793,9.132,9.132,0,0,1,2.331,2.992,9.3,9.3,0,0,1,.889,4.164,9.272,9.272,0,0,1-.889,4.178A9.174,9.174,0,0,1,13.141,16.7a9.914,9.914,0,0,1-3.235,1.793A11.387,11.387,0,0,1,6.334,19.084ZM1.94,1.779V17.305H5.714A9.959,9.959,0,0,0,9.5,16.645a7.869,7.869,0,0,0,2.668-1.752,7,7,0,0,0,1.577-2.479,8.288,8.288,0,0,0,0-5.741,7.007,7.007,0,0,0-1.577-2.48A7.9,7.9,0,0,0,9.5,2.439a9.976,9.976,0,0,0-3.787-.66Z" transform="translate(0 1.294)" fill="#0d2840"/>
    <path id="Fill_4" data-name="Fill 4" d="M2.183,18.76H.4V6.146H2.183V18.76ZM1.294,2.588A1.308,1.308,0,0,1,.4,2.224a1.2,1.2,0,0,1-.4-.93A1.2,1.2,0,0,1,.4.364,1.311,1.311,0,0,1,1.294,0a1.307,1.307,0,0,1,.889.364,1.2,1.2,0,0,1,.4.931,1.2,1.2,0,0,1-.4.93A1.3,1.3,0,0,1,1.294,2.588Z" transform="translate(19.596 1.617)" fill="#0d2840"/>
    <path id="Fill_6" data-name="Fill 6" d="M6.361,19.407a8.708,8.708,0,0,1-3.37-.619A7.863,7.863,0,0,1,.3,16.873l1.32-1.4a5.714,5.714,0,0,0,2.035,1.685,6.13,6.13,0,0,0,2.79.634A6.007,6.007,0,0,0,8.734,17.4a3.993,3.993,0,0,0,1.523-1.065,4.123,4.123,0,0,0,.835-1.577,7.056,7.056,0,0,0,.257-1.927V10.566h-.054a4.877,4.877,0,0,1-2.1,1.833,6.525,6.525,0,0,1-2.614.539A6.833,6.833,0,0,1,4,12.453a6.571,6.571,0,0,1-2.089-1.335,6.164,6.164,0,0,1-1.4-2.035A6.42,6.42,0,0,1,0,6.523,6.74,6.74,0,0,1,.485,3.962,6.611,6.611,0,0,1,1.82,1.886,6.057,6.057,0,0,1,3.841.5,6.542,6.542,0,0,1,6.415,0a7.2,7.2,0,0,1,1.2.108A5.713,5.713,0,0,1,8.881.485a5.827,5.827,0,0,1,2.413,1.94h.054V.323h1.779V12.83a10.178,10.178,0,0,1-.257,2.183,5.42,5.42,0,0,1-1,2.129A5.7,5.7,0,0,1,9.812,18.76,7.922,7.922,0,0,1,6.361,19.407Zm.27-17.789a4.39,4.39,0,0,0-1.847.391A4.864,4.864,0,0,0,3.3,3.059,4.978,4.978,0,0,0,2.3,4.6a5,5,0,0,0,0,3.747,4.949,4.949,0,0,0,1,1.536A4.834,4.834,0,0,0,4.784,10.93a4.377,4.377,0,0,0,1.847.392,4.936,4.936,0,0,0,3.4-1.335,4.3,4.3,0,0,0,1.038-1.523A4.934,4.934,0,0,0,11.4,6.469,5.384,5.384,0,0,0,11.078,4.6a4.52,4.52,0,0,0-.943-1.536A4.592,4.592,0,0,0,8.626,2.008,4.938,4.938,0,0,0,6.631,1.617Z" transform="translate(25.418 7.439)" fill="#0d2840"/>
    <path id="Fill_7" data-name="Fill 7" d="M2.183,18.76H.4V6.146H2.183V18.76ZM1.294,2.588A1.308,1.308,0,0,1,.4,2.224a1.2,1.2,0,0,1-.4-.93A1.2,1.2,0,0,1,.4.364,1.311,1.311,0,0,1,1.294,0a1.307,1.307,0,0,1,.889.364,1.2,1.2,0,0,1,.4.931,1.2,1.2,0,0,1-.4.93A1.3,1.3,0,0,1,1.294,2.588Z" transform="translate(42.534 1.617)" fill="#0d2840"/>
    <path id="Fill_8" data-name="Fill 8" d="M8.086,5.175H4.447v7.44a4.021,4.021,0,0,0,.135,1.145,1.614,1.614,0,0,0,.377.687,1.3,1.3,0,0,0,.58.337,2.725,2.725,0,0,0,.741.094,3.5,3.5,0,0,0,.944-.135,4.341,4.341,0,0,0,.889-.35l.081,1.644a5.719,5.719,0,0,1-2.4.458,4.5,4.5,0,0,1-1.065-.135,2.508,2.508,0,0,1-1.011-.512,2.814,2.814,0,0,1-.755-1.024,4.107,4.107,0,0,1-.3-1.7V5.175H0V3.558H2.668V0H4.447V3.558H8.086Z" transform="translate(47.439 4.205)" fill="#0d2840"/>
    <path id="Fill_9" data-name="Fill 9" d="M4.34,13.262a5.769,5.769,0,0,1-1.617-.229,4.139,4.139,0,0,1-1.388-.7,3.584,3.584,0,0,1-.971-1.159A3.4,3.4,0,0,1,0,9.569,3.468,3.468,0,0,1,.8,7.157,4.884,4.884,0,0,1,2.79,5.849,9.889,9.889,0,0,1,5.35,5.31C6.257,5.239,7.1,5.2,7.843,5.2h.89V4.879a3.354,3.354,0,0,0-.809-2.446A3.292,3.292,0,0,0,5.5,1.617,5.6,5.6,0,0,0,1.644,3.1L.566,1.833A7.149,7.149,0,0,1,5.9,0,5.819,5.819,0,0,1,7.669.27a4.016,4.016,0,0,1,1.469.822,4.1,4.1,0,0,1,1,1.389,4.834,4.834,0,0,1,.377,1.994v5.633c0,.484.023,1,.068,1.523s.095.968.148,1.308H9a9.97,9.97,0,0,1-.122-1c-.026-.362-.04-.715-.04-1.051H8.788a4.855,4.855,0,0,1-1.847,1.82A5.635,5.635,0,0,1,4.34,13.262Zm3.478-6.6c-.443,0-1.01.022-1.685.067a9.833,9.833,0,0,0-1.941.324,4.287,4.287,0,0,0-1.59.8A1.817,1.817,0,0,0,1.94,9.327,2.108,2.108,0,0,0,2.2,10.391a2.137,2.137,0,0,0,.688.727,2.93,2.93,0,0,0,.957.405,4.73,4.73,0,0,0,1.065.121,4.081,4.081,0,0,0,1.685-.323A3.423,3.423,0,0,0,8.5,9.151a5.326,5.326,0,0,0,.229-1.577V6.658Z" transform="translate(57.304 7.439)" fill="#0d2840"/>
    <path id="Fill_10" data-name="Fill 10" d="M0,20.378H1.779V0H0Z" transform="translate(72.345 0)" fill="#0d2840"/>
    <path id="Fill_11" data-name="Fill 11" d="M17.44,8.9V18.3a8.705,8.705,0,0,1-1.59.755A16.918,16.918,0,0,1,14,19.61a15.75,15.75,0,0,1-1.941.337,17.133,17.133,0,0,1-1.846.108,10.961,10.961,0,0,1-4.326-.809,9.486,9.486,0,0,1-3.208-2.183A9.4,9.4,0,0,1,.687,13.868,10.777,10.777,0,0,1,0,10.027,10.466,10.466,0,0,1,.741,6.065,9.78,9.78,0,0,1,2.79,2.884,9.351,9.351,0,0,1,5.93.768,10.285,10.285,0,0,1,9.946,0a11.9,11.9,0,0,1,4.313.66,7.936,7.936,0,0,1,2.8,1.82L15.229,4.448a6.785,6.785,0,0,0-2.507-1.577,8.647,8.647,0,0,0-2.776-.445A6.936,6.936,0,0,0,4.717,4.663,7.185,7.185,0,0,0,3.261,7.076a8.462,8.462,0,0,0-.512,2.952,7.891,7.891,0,0,0,.566,3.005,7.45,7.45,0,0,0,1.564,2.412,7.2,7.2,0,0,0,2.345,1.6,7.349,7.349,0,0,0,2.938.58,12.679,12.679,0,0,0,2.6-.256,7.291,7.291,0,0,0,2.089-.741v-5.31H10.62V8.9Z" transform="translate(77.737 0.809)" fill="#0d2840"/>
    <path id="Fill_12" data-name="Fill 12" d="M6.577,13.424a7.071,7.071,0,0,1-2.736-.512A5.975,5.975,0,0,1,1.766,11.5,6.3,6.3,0,0,1,.459,9.366,7.546,7.546,0,0,1,0,6.711,7.024,7.024,0,0,1,.5,4.056,6.609,6.609,0,0,1,1.874,1.928,6.3,6.3,0,0,1,3.963.512,6.755,6.755,0,0,1,6.6,0,6.346,6.346,0,0,1,9.475.593,5.705,5.705,0,0,1,11.4,2.143,6.17,6.17,0,0,1,12.494,4.3a9.047,9.047,0,0,1,.337,2.44V7.6H2.588a3.214,3.214,0,0,0,.364,1.523A3.8,3.8,0,0,0,3.909,10.3a4.436,4.436,0,0,0,1.374.754,4.942,4.942,0,0,0,1.617.27A3.642,3.642,0,0,0,8.869,10.8,6.372,6.372,0,0,0,10.4,9.407l1.832,1.4A6.772,6.772,0,0,1,6.577,13.424ZM6.55,1.94a3.92,3.92,0,0,0-1.631.337,4,4,0,0,0-1.254.876,4.069,4.069,0,0,0-.795,1.2A3.314,3.314,0,0,0,2.588,5.66h7.655a5.162,5.162,0,0,0-.256-1.482A3.294,3.294,0,0,0,9.3,3.005a3.2,3.2,0,0,0-1.146-.781A4.2,4.2,0,0,0,6.55,1.94Z" transform="translate(98.519 7.278)" fill="#0d2840"/>
    <path id="Fill_13" data-name="Fill 13" d="M0,.324H2.426V2.291H2.48A3.576,3.576,0,0,1,4.07.634,5.265,5.265,0,0,1,6.685,0,5.541,5.541,0,0,1,8.45.283a3.985,3.985,0,0,1,1.483.876,4.231,4.231,0,0,1,1.011,1.523,5.832,5.832,0,0,1,.377,2.2V13.1H8.9V5.553A4.26,4.26,0,0,0,8.652,4.03a2.789,2.789,0,0,0-.647-1.024,2.441,2.441,0,0,0-.93-.566,3.436,3.436,0,0,0-1.092-.175,3.962,3.962,0,0,0-1.4.243,2.925,2.925,0,0,0-1.132.768A3.616,3.616,0,0,0,2.7,4.609a6.059,6.059,0,0,0-.27,1.914V13.1H0Z" transform="translate(114.261 7.278)" fill="#0d2840"/>
    <path id="Fill_14" data-name="Fill 14" d="M2.992,19.138H.566V6.361H2.992V19.137ZM1.779,3.558A1.719,1.719,0,0,1,.526,3.032,1.715,1.715,0,0,1,0,1.779,1.719,1.719,0,0,1,.526.526,1.719,1.719,0,0,1,1.779,0,1.715,1.715,0,0,1,3.032.526a1.719,1.719,0,0,1,.526,1.254,1.715,1.715,0,0,1-.526,1.253A1.715,1.715,0,0,1,1.779,3.558Z" transform="translate(128.87 1.24)" fill="#0d2840"/>
    <path id="Fill_15" data-name="Fill 15" d="M11.321,12.777H8.9V10.809H8.841a3.574,3.574,0,0,1-1.59,1.658,5.267,5.267,0,0,1-2.615.634,5.5,5.5,0,0,1-1.779-.283,3.994,3.994,0,0,1-1.469-.876A4.219,4.219,0,0,1,.378,10.418,5.816,5.816,0,0,1,0,8.221V0H2.426V7.548A4.258,4.258,0,0,0,2.669,9.07a2.781,2.781,0,0,0,.647,1.024,2.424,2.424,0,0,0,.93.566,3.429,3.429,0,0,0,1.092.175,3.958,3.958,0,0,0,1.4-.243,2.918,2.918,0,0,0,1.132-.768,3.627,3.627,0,0,0,.755-1.334A6.075,6.075,0,0,0,8.9,6.577V0h2.426Z" transform="translate(135.716 7.601)" fill="#0d2840"/>
    <path id="Fill_16" data-name="Fill 16" d="M7.871,3.531a3.73,3.73,0,0,0-1.065-.9,3.067,3.067,0,0,0-1.55-.364,2.951,2.951,0,0,0-1.5.364,1.16,1.16,0,0,0-.633,1.065,1.214,1.214,0,0,0,.364.916,2.861,2.861,0,0,0,.862.566A5.034,5.034,0,0,0,5.418,5.5q.566.108.971.189a11.33,11.33,0,0,1,1.469.458,4.069,4.069,0,0,1,1.186.7A3.04,3.04,0,0,1,9.825,7.9a3.62,3.62,0,0,1,.283,1.509,3.543,3.543,0,0,1-.458,1.846,3.867,3.867,0,0,1-1.186,1.253,4.99,4.99,0,0,1-1.658.7,8.289,8.289,0,0,1-1.873.216,7.4,7.4,0,0,1-2.79-.485A5.015,5.015,0,0,1,0,11.159L1.833,9.65A7.515,7.515,0,0,0,3.154,10.7a3.27,3.27,0,0,0,1.779.458,4.706,4.706,0,0,0,.93-.094,2.868,2.868,0,0,0,.835-.3,1.824,1.824,0,0,0,.593-.512,1.17,1.17,0,0,0,.229-.714,1.233,1.233,0,0,0-.337-.89A2.458,2.458,0,0,0,6.375,8.1a5.89,5.89,0,0,0-1-.323q-.526-.121-.93-.2-.782-.188-1.483-.431A4.5,4.5,0,0,1,1.725,6.5,2.983,2.983,0,0,1,.863,5.472,3.3,3.3,0,0,1,.539,3.936,3.477,3.477,0,0,1,.957,2.2,3.71,3.71,0,0,1,2.062.971,4.989,4.989,0,0,1,3.625.243,6.582,6.582,0,0,1,5.391,0a6.5,6.5,0,0,1,2.48.485A3.931,3.931,0,0,1,9.758,2.1Z" transform="translate(149.625 7.278)" fill="#0d2840"/>
  </g>
</svg>
